{"title":"Sweeney Todd The Demon Barber Of Fleet Street 2007 BRRip","uid":12522115,"size":1576184944,"categoryP":"video","categoryS":"hd___movies","magnet":"?xt=urn:btih:9a0071f037a38cad206a1a25f05284d9fd581f28&amp;dn=Sweeney+Todd+The+Demon+Barber+Of+Fleet+Street+2007+BRRip&amp;tr=udp%3A%2F%2Ftracker.leechers-paradise.org%3A6969&amp;tr=udp%3A%2F%2Fzer0day.ch%3A1337&amp;tr=udp%3A%2F%2Fopen.demonii.com%3A1337&amp;tr=udp%3A%2F%2Ftracker.coppersurfer.tk%3A6969&amp;tr=udp%3A%2F%2Fexodus.desync.com%3A6969","seeders":0,"leechers":1,"uploader":"Joker__TPB","files":4,"time":1443892931,"description":"===================================================================================\r\nIn the Victorian London| the barber Benjamin Barker is married to the gorgeous Lucy and they have a lovely child| Johanna. The beauty of Lucy attracts the attention\r\nof the corrupt Judge Turpin| who falsely accuses the barber of a crime that he did not commit and abuses Lucy later after gaining custody of her. After fifteen years\r\nin exile| Benjamin returns to London under the new identity of Sweeney Todd| seeking revenge against Turpin. He meets the widow Mrs. Lovett who is the owner of a\r\nmeat pie shop who tells him that Lucy swallowed arsenic many years ago| and Turpin assigned himself tutor of Johanna. He opens a barber shop above her store|\r\ninitiating a crime rampage against those who made him suffer and lose his beloved family.\r\n===================================================================================\r\nVideo\r\nID                                       : 0\r\nFormat                                   : MPEG-4 Visual\r\nFormat profile                           :   \r\nFormat settings, BVOP                    : No\r\nFormat settings, QPel                    : No\r\nFormat settings, GMC                     : No warppoints\r\nFormat settings, Matrix                  : Default (H.263)\r\nCodec ID                                 : XVID\r\nCodec ID/Hint                            : XviD\r\nDuration                                 : 1h 56mn\r\nBit rate                                 : 1 598 Kbps\r\nWidth                                    : 720 pixels\r\nHeight                                   : 400 pixels\r\nDisplay aspect ratio                     : 16:9\r\nFrame rate                               : 23.976 fps\r\nColor space                              : YUV\r\nChroma subsampling                       : 4:2:0\r\nBit depth                                : 8 bits\r\nScan type                                : Progressive\r\nCompression mode                         : Lossy\r\nBits/(Pixel*Frame)                       : 0.231\r\nStream size                              : 1.30 GiB (89%)\r\nWriting library                          : Lavc56.60.100\r\n\r\nAudio\r\nID                                       : 1\r\nFormat                                   : MPEG Audio\r\nFormat version                           : Version 1\r\nFormat profile                           : Layer 3\r\nMode                                     : Joint stereo\r\nMode extension                           : MS Stereo\r\nCodec ID                                 : 55\r\nCodec ID/Hint                            : MP3\r\nDuration                                 : 1h 56mn\r\nBit rate mode                            : Constant\r\nBit rate                                 : 192 Kbps\r\nChannel(s)                               : 2 channels\r\nSampling rate                            : 48.0 KHz\r\nCompression mode                         : Lossy\r\nStream size                              : 160 MiB (11%)\r\nAlignment                                : Aligned on interleaves\r\nInterleave, duration                     : 24 ms (0.58 video frame)\r\nInterleave, preload duration             : 24 ms\r\n===================================================================================","torrent":{"xt":"urn:btih:9a0071f037a38cad206a1a25f05284d9fd581f28","amp;dn":"Sweeney+Todd+The+Demon+Barber+Of+Fleet+Street+2007+BRRip","amp;tr":["udp%3A%2F%2Ftracker.leechers-paradise.org%3A6969","udp%3A%2F%2Fzer0day.ch%3A1337","udp%3A%2F%2Fopen.demonii.com%3A1337","udp%3A%2F%2Ftracker.coppersurfer.tk%3A6969","udp%3A%2F%2Fexodus.desync.com%3A6969"],"infoHash":"9a0071f037a38cad206a1a25f05284d9fd581f28","infoHashBuffer":{"type":"Buffer","data":[154,0,113,240,55,163,140,173,32,106,26,37,240,82,132,217,253,88,31,40]},"announce":[],"urlList":[]}}